<?xml version="1.0" encoding="UTF-8" standalone="no"?>
<!DOCTYPE svg PUBLIC "-//W3C//DTD SVG 1.1//EN"
 "http://www.w3.org/Graphics/SVG/1.1/DTD/svg11.dtd">
<!-- Generated by graphviz version 2.38.0 (20140413.2041)
 -->
<!-- Title: models_diagram Pages: 1 -->
<svg width="2213pt" height="545pt"
 viewBox="0.00 0.00 2212.98 545.00" xmlns="http://www.w3.org/2000/svg" xmlns:xlink="http://www.w3.org/1999/xlink">
<g id="graph0" class="graph" transform="scale(1 1) rotate(0) translate(4 541)">
<title>models_diagram</title>
<polygon fill="white" stroke="none" points="-4,4 -4,-541 2208.98,-541 2208.98,4 -4,4"/>
<!-- _diagram_info -->
<g id="node1" class="node"><title>_diagram_info</title>
<text text-anchor="start" x="478.292" y="-522.6" font-family="Times,serif" font-size="13.00">Models diagram</text>
<text text-anchor="start" x="478.292" y="-509.6" font-family="Times,serif" font-size="13.00">Date: Feb 24 2015 &#45; 14:14</text>
<text text-anchor="start" x="478.292" y="-496.6" font-family="Times,serif" font-size="13.00">Migration version: 20150219104732</text>
<text text-anchor="start" x="478.292" y="-483.6" font-family="Times,serif" font-size="13.00">Generated by RailRoady 1.3.0</text>
<text text-anchor="start" x="478.292" y="-470.6" font-family="Times,serif" font-size="13.00">http://railroady.prestonlee.com</text>
</g>
<!-- Album -->
<g id="node2" class="node"><title>Album</title>
<ellipse fill="none" stroke="black" cx="729.98" cy="-500.5" rx="34.8458" ry="18"/>
<text text-anchor="middle" x="729.98" y="-496.3" font-family="Times,serif" font-size="14.00">Album</text>
</g>
<!-- Picture -->
<g id="node24" class="node"><title>Picture</title>
<ellipse fill="none" stroke="black" cx="729.98" cy="-409" rx="35.3129" ry="18"/>
<text text-anchor="middle" x="729.98" y="-404.8" font-family="Times,serif" font-size="14.00">Picture</text>
</g>
<!-- Album&#45;&gt;Picture -->
<g id="edge1" class="edge"><title>Album&#45;&gt;Picture</title>
<path fill="none" stroke="#916278" d="M729.98,-473.903C729.98,-462.441 729.98,-448.914 729.98,-437.263"/>
<ellipse fill="none" stroke="#916278" cx="729.98" cy="-478.243" rx="4" ry="4"/>
<polygon fill="#916278" stroke="#916278" points="729.98,-437.204 734.48,-427.203 729.98,-432.204 729.98,-427.204 729.98,-427.204 729.98,-427.204 729.98,-432.204 725.48,-427.204 729.98,-437.204 729.98,-437.204"/>
</g>
<!-- Antenna -->
<g id="node3" class="node"><title>Antenna</title>
<ellipse fill="none" stroke="black" cx="504.98" cy="-250" rx="40.1317" ry="18"/>
<text text-anchor="middle" x="504.98" y="-245.8" font-family="Times,serif" font-size="14.00">Antenna</text>
</g>
<!-- Equipment -->
<g id="node14" class="node"><title>Equipment</title>
<ellipse fill="none" stroke="black" cx="290.98" cy="-164" rx="48.8273" ry="18"/>
<text text-anchor="middle" x="290.98" y="-159.8" font-family="Times,serif" font-size="14.00">Equipment</text>
</g>
<!-- Antenna&#45;&gt;Equipment -->
<g id="edge3" class="edge"><title>Antenna&#45;&gt;Equipment</title>
<path fill="none" stroke="#2374e6" d="M485.889,-227.088C476.329,-217.411 464.024,-206.727 450.98,-200 418.48,-183.24 378.255,-174.486 346.269,-169.924"/>
<ellipse fill="none" stroke="#2374e6" cx="488.708" cy="-230.044" rx="4.00002" ry="4.00002"/>
<ellipse fill="#2374e6" stroke="#2374e6" cx="342.288" cy="-169.387" rx="4.00001" ry="4.00001"/>
</g>
<!-- PaperTrail::Version -->
<g id="node35" class="node"><title>PaperTrail::Version</title>
<ellipse fill="none" stroke="black" cx="844.98" cy="-164" rx="79.1078" ry="18"/>
<text text-anchor="middle" x="844.98" y="-159.8" font-family="Times,serif" font-size="14.00">PaperTrail::Version</text>
</g>
<!-- Antenna&#45;&gt;PaperTrail::Version -->
<g id="edge2" class="edge"><title>Antenna&#45;&gt;PaperTrail::Version</title>
<path fill="none" stroke="#57e984" d="M527.281,-228.107C539.609,-217.832 555.755,-206.324 572.318,-200 646.875,-171.533 671.95,-193.11 750.98,-182 759.36,-180.822 768.135,-179.438 776.814,-177.977"/>
<ellipse fill="none" stroke="#57e984" cx="524.233" cy="-230.727" rx="4.00002" ry="4.00002"/>
<polygon fill="#57e984" stroke="#57e984" points="777.074,-177.932 787.692,-180.669 782.001,-177.083 786.928,-176.234 786.928,-176.234 786.928,-176.234 782.001,-177.083 786.164,-171.8 777.074,-177.932 777.074,-177.932"/>
<text text-anchor="middle" x="596.311" y="-202.8" font-family="Times,serif" font-size="14.00">versions</text>
</g>
<!-- AntennaParameter -->
<g id="node4" class="node"><title>AntennaParameter</title>
<ellipse fill="none" stroke="black" cx="1101.98" cy="-500.5" rx="75.8208" ry="18"/>
<text text-anchor="middle" x="1101.98" y="-496.3" font-family="Times,serif" font-size="14.00">AntennaParameter</text>
</g>
<!-- OperatingParameter -->
<g id="node23" class="node"><title>OperatingParameter</title>
<ellipse fill="none" stroke="black" cx="1246.98" cy="-409" rx="81.125" ry="18"/>
<text text-anchor="middle" x="1246.98" y="-404.8" font-family="Times,serif" font-size="14.00">OperatingParameter</text>
</g>
<!-- AntennaParameter&#45;&gt;OperatingParameter -->
<g id="edge4" class="edge"><title>AntennaParameter&#45;&gt;OperatingParameter</title>
<path fill="none" stroke="#91e0d2" d="M1134.96,-479.143C1158.52,-464.598 1190.11,-445.103 1213.73,-430.521"/>
<ellipse fill="none" stroke="#91e0d2" cx="1131.31" cy="-481.398" rx="4.00002" ry="4.00002"/>
<ellipse fill="#91e0d2" stroke="#91e0d2" cx="1217.39" cy="-428.265" rx="4.00002" ry="4.00002"/>
</g>
<!-- BaseStationSector -->
<g id="node5" class="node"><title>BaseStationSector</title>
<ellipse fill="none" stroke="black" cx="694.98" cy="-336" rx="74.8948" ry="18"/>
<text text-anchor="middle" x="694.98" y="-331.8" font-family="Times,serif" font-size="14.00">BaseStationSector</text>
</g>
<!-- ClientLink -->
<g id="node10" class="node"><title>ClientLink</title>
<ellipse fill="none" stroke="black" cx="610.98" cy="-250" rx="48.3514" ry="18"/>
<text text-anchor="middle" x="610.98" y="-245.8" font-family="Times,serif" font-size="14.00">ClientLink</text>
</g>
<!-- BaseStationSector&#45;&gt;ClientLink -->
<g id="edge6" class="edge"><title>BaseStationSector&#45;&gt;ClientLink</title>
<path fill="none" stroke="#18fc8e" d="M672.496,-312.516C660.603,-300.623 646.026,-286.046 634.047,-274.067"/>
<ellipse fill="none" stroke="#18fc8e" cx="675.556" cy="-315.576" rx="4.00002" ry="4.00002"/>
<polygon fill="#18fc8e" stroke="#18fc8e" points="634.042,-274.062 630.153,-263.809 630.507,-270.527 626.971,-266.991 626.971,-266.991 626.971,-266.991 630.507,-270.527 623.789,-270.173 634.042,-274.062 634.042,-274.062"/>
</g>
<!-- BaseStationSector&#45;&gt;PaperTrail::Version -->
<g id="edge5" class="edge"><title>BaseStationSector&#45;&gt;PaperTrail::Version</title>
<path fill="none" stroke="#d09097" d="M690.428,-309.925C687.781,-287.506 687.577,-254.769 703.318,-232 721.102,-206.276 751.476,-190.145 779.549,-180.178"/>
<ellipse fill="none" stroke="#d09097" cx="690.989" cy="-314.007" rx="4.00001" ry="4.00001"/>
<polygon fill="#d09097" stroke="#d09097" points="779.872,-180.07 790.783,-181.173 784.615,-178.487 789.358,-176.904 789.358,-176.904 789.358,-176.904 784.615,-178.487 787.933,-172.636 779.872,-180.07 779.872,-180.07"/>
<text text-anchor="middle" x="727.311" y="-245.8" font-family="Times,serif" font-size="14.00">versions</text>
</g>
<!-- BaseStationUnit -->
<g id="node6" class="node"><title>BaseStationUnit</title>
<ellipse fill="none" stroke="black" cx="850.98" cy="-409" rx="68.1547" ry="18"/>
<text text-anchor="middle" x="850.98" y="-404.8" font-family="Times,serif" font-size="14.00">BaseStationUnit</text>
</g>
<!-- BaseStationUnit&#45;&gt;BaseStationSector -->
<g id="edge8" class="edge"><title>BaseStationUnit&#45;&gt;BaseStationSector</title>
<path fill="none" stroke="#0d5275" d="M810.933,-389.773C788.466,-379.548 760.445,-366.795 737.577,-356.387"/>
<ellipse fill="none" stroke="#0d5275" cx="814.636" cy="-391.459" rx="4.00002" ry="4.00002"/>
<polygon fill="#0d5275" stroke="#0d5275" points="737.548,-356.374 730.311,-348.136 732.997,-354.303 728.446,-352.232 728.446,-352.232 728.446,-352.232 732.997,-354.303 726.582,-356.327 737.548,-356.374 737.548,-356.374"/>
</g>
<!-- BaseStationUnit&#45;&gt;PaperTrail::Version -->
<g id="edge7" class="edge"><title>BaseStationUnit&#45;&gt;PaperTrail::Version</title>
<path fill="none" stroke="#e31c14" d="M850.354,-382.637C849.216,-336.573 846.821,-239.561 845.651,-192.188"/>
<ellipse fill="none" stroke="#e31c14" cx="850.459" cy="-386.914" rx="4" ry="4"/>
<polygon fill="#e31c14" stroke="#e31c14" points="845.648,-192.065 849.9,-181.957 845.525,-187.067 845.401,-182.068 845.401,-182.068 845.401,-182.068 845.525,-187.067 840.903,-182.18 845.648,-192.065 845.648,-192.065"/>
<text text-anchor="middle" x="872.311" y="-288.8" font-family="Times,serif" font-size="14.00">versions</text>
</g>
<!-- Chassis -->
<g id="node7" class="node"><title>Chassis</title>
<ellipse fill="none" stroke="black" cx="338.98" cy="-336" rx="37.2681" ry="18"/>
<text text-anchor="middle" x="338.98" y="-331.8" font-family="Times,serif" font-size="14.00">Chassis</text>
</g>
<!-- Container -->
<g id="node11" class="node"><title>Container</title>
<ellipse fill="none" stroke="black" cx="44.9798" cy="-250" rx="44.9596" ry="18"/>
<text text-anchor="middle" x="44.9798" y="-245.8" font-family="Times,serif" font-size="14.00">Container</text>
</g>
<!-- Chassis&#45;&gt;Container -->
<g id="edge10" class="edge"><title>Chassis&#45;&gt;Container</title>
<path fill="none" stroke="#728caa" d="M299.126,-324.303C251.414,-311.399 169.153,-288.835 98.9798,-268 95.0181,-266.824 90.901,-265.575 86.7866,-264.31"/>
<ellipse fill="none" stroke="#728caa" cx="303.189" cy="-325.401" rx="4.00001" ry="4.00001"/>
<ellipse fill="#728caa" stroke="#728caa" cx="82.7394" cy="-263.055" rx="4.00001" ry="4.00001"/>
</g>
<!-- Chassis&#45;&gt;Equipment -->
<g id="edge9" class="edge"><title>Chassis&#45;&gt;Equipment</title>
<path fill="none" stroke="#fa0171" d="M368.973,-317.37C398.696,-297.529 437.212,-263.891 417.98,-232 400.917,-203.707 367.48,-186.751 339.198,-176.977"/>
<ellipse fill="none" stroke="#fa0171" cx="365.386" cy="-319.693" rx="4.00002" ry="4.00002"/>
<ellipse fill="#fa0171" stroke="#fa0171" cx="335.176" cy="-175.656" rx="4.00001" ry="4.00001"/>
</g>
<!-- City -->
<g id="node8" class="node"><title>City</title>
<ellipse fill="none" stroke="black" cx="1560.98" cy="-500.5" rx="27" ry="18"/>
<text text-anchor="middle" x="1560.98" y="-496.3" font-family="Times,serif" font-size="14.00">City</text>
</g>
<!-- Client -->
<g id="node9" class="node"><title>Client</title>
<ellipse fill="none" stroke="black" cx="790.98" cy="-250" rx="31.948" ry="18"/>
<text text-anchor="middle" x="790.98" y="-245.8" font-family="Times,serif" font-size="14.00">Client</text>
</g>
<!-- Client&#45;&gt;PaperTrail::Version -->
<g id="edge11" class="edge"><title>Client&#45;&gt;PaperTrail::Version</title>
<path fill="none" stroke="#a20b30" d="M785.94,-224.022C785.502,-215.935 786.378,-207.201 790.318,-200 793.159,-194.807 797.136,-190.271 801.663,-186.342"/>
<ellipse fill="none" stroke="#a20b30" cx="786.377" cy="-228.148" rx="4" ry="4"/>
<polygon fill="#a20b30" stroke="#a20b30" points="801.708,-186.308 812.403,-183.888 805.702,-183.3 809.697,-180.293 809.697,-180.293 809.697,-180.293 805.702,-183.3 806.99,-176.698 801.708,-186.308 801.708,-186.308"/>
<text text-anchor="middle" x="814.311" y="-202.8" font-family="Times,serif" font-size="14.00">versions</text>
</g>
<!-- ServiceFragment -->
<g id="node29" class="node"><title>ServiceFragment</title>
<ellipse fill="none" stroke="black" cx="670.98" cy="-164" rx="70.534" ry="18"/>
<text text-anchor="middle" x="670.98" y="-159.8" font-family="Times,serif" font-size="14.00">ServiceFragment</text>
</g>
<!-- ClientLink&#45;&gt;ServiceFragment -->
<g id="edge13" class="edge"><title>ClientLink&#45;&gt;ServiceFragment</title>
<path fill="none" stroke="#9ff4f3" d="M608.093,-223.847C608.279,-215.747 609.747,-207.05 613.98,-200 617.314,-194.446 621.901,-189.651 627.037,-185.547"/>
<ellipse fill="none" stroke="#9ff4f3" cx="608.198" cy="-227.979" rx="4" ry="4"/>
<polygon fill="#9ff4f3" stroke="#9ff4f3" points="627.264,-185.389 638.038,-183.347 631.361,-182.524 635.459,-179.659 635.459,-179.659 635.459,-179.659 631.361,-182.524 632.88,-175.971 627.264,-185.389 627.264,-185.389"/>
</g>
<!-- SubGroupPictureSet -->
<g id="node32" class="node"><title>SubGroupPictureSet</title>
<ellipse fill="none" stroke="black" cx="499.98" cy="-164" rx="82.6303" ry="18"/>
<text text-anchor="middle" x="499.98" y="-159.8" font-family="Times,serif" font-size="14.00">SubGroupPictureSet</text>
</g>
<!-- ClientLink&#45;&gt;SubGroupPictureSet -->
<g id="edge14" class="edge"><title>ClientLink&#45;&gt;SubGroupPictureSet</title>
<path fill="none" stroke="#2a363c" d="M567.451,-235.313C543.576,-227.452 518.005,-218.309 513.98,-214 508.436,-208.066 505.068,-200.089 503.028,-192.296"/>
<ellipse fill="none" stroke="#2a363c" cx="571.311" cy="-236.572" rx="4.00001" ry="4.00001"/>
<polygon fill="#2a363c" stroke="#2a363c" points="502.999,-192.152 505.453,-181.464 502.02,-187.248 501.04,-182.345 501.04,-182.345 501.04,-182.345 502.02,-187.248 496.627,-183.227 502.999,-192.152 502.999,-192.152"/>
</g>
<!-- ClientLink&#45;&gt;PaperTrail::Version -->
<g id="edge12" class="edge"><title>ClientLink&#45;&gt;PaperTrail::Version</title>
<path fill="none" stroke="#8b3a37" d="M617.456,-224.18C621.009,-215.244 626.366,-205.917 634.318,-200 676.408,-168.682 699.238,-190.669 750.98,-182 758.945,-180.665 767.282,-179.223 775.56,-177.763"/>
<ellipse fill="none" stroke="#8b3a37" cx="616.099" cy="-228.061" rx="4.00001" ry="4.00001"/>
<polygon fill="#8b3a37" stroke="#8b3a37" points="775.754,-177.729 786.387,-180.41 780.677,-176.854 785.6,-175.979 785.6,-175.979 785.6,-175.979 780.677,-176.854 784.812,-171.548 775.754,-177.729 775.754,-177.729"/>
<text text-anchor="middle" x="658.311" y="-202.8" font-family="Times,serif" font-size="14.00">versions</text>
</g>
<!-- Container&#45;&gt;Equipment -->
<g id="edge16" class="edge"><title>Container&#45;&gt;Equipment</title>
<path fill="none" stroke="#6ce740" d="M87.9091,-234.341C132.478,-219.123 201.852,-195.434 246.857,-180.066"/>
<polygon fill="#6ce740" stroke="#6ce740" points="87.6199,-234.44 76.7023,-233.413 82.8882,-236.056 78.1564,-237.671 78.1564,-237.671 78.1564,-237.671 82.8882,-236.056 79.6106,-241.93 87.6199,-234.44 87.6199,-234.44"/>
<polygon fill="#6ce740" stroke="#6ce740" points="246.888,-180.056 257.805,-181.083 251.619,-178.44 256.351,-176.824 256.351,-176.824 256.351,-176.824 251.619,-178.44 254.897,-172.566 246.888,-180.056 246.888,-180.056"/>
</g>
<!-- EquipmentContainer -->
<g id="node15" class="node"><title>EquipmentContainer</title>
<ellipse fill="none" stroke="black" cx="121.98" cy="-91" rx="83.5736" ry="18"/>
<text text-anchor="middle" x="121.98" y="-86.8" font-family="Times,serif" font-size="14.00">EquipmentContainer</text>
</g>
<!-- Container&#45;&gt;EquipmentContainer -->
<g id="edge15" class="edge"><title>Container&#45;&gt;EquipmentContainer</title>
<path fill="none" stroke="#b6282b" d="M56.7539,-224.993C70.8448,-196.262 94.3633,-148.309 108.977,-118.512"/>
<ellipse fill="none" stroke="#b6282b" cx="54.9815" cy="-228.607" rx="4.00002" ry="4.00002"/>
<polygon fill="#b6282b" stroke="#b6282b" points="109.162,-118.135 117.606,-111.138 111.364,-113.646 113.565,-109.157 113.565,-109.157 113.565,-109.157 111.364,-113.646 109.525,-107.175 109.162,-118.135 109.162,-118.135"/>
</g>
<!-- ControllerCard -->
<g id="node12" class="node"><title>ControllerCard</title>
<ellipse fill="none" stroke="black" cx="171.98" cy="-250" rx="63.7942" ry="18"/>
<text text-anchor="middle" x="171.98" y="-245.8" font-family="Times,serif" font-size="14.00">ControllerCard</text>
</g>
<!-- ControllerCard&#45;&gt;Equipment -->
<g id="edge17" class="edge"><title>ControllerCard&#45;&gt;Equipment</title>
<path fill="none" stroke="#4d99e9" d="M201.207,-228.369C219.929,-215.154 244.102,-198.09 262.647,-185"/>
<ellipse fill="none" stroke="#4d99e9" cx="197.911" cy="-230.696" rx="4.00002" ry="4.00002"/>
<ellipse fill="#4d99e9" stroke="#4d99e9" cx="265.936" cy="-182.678" rx="4.00002" ry="4.00002"/>
</g>
<!-- CoreNode -->
<g id="node13" class="node"><title>CoreNode</title>
<ellipse fill="none" stroke="black" cx="933.98" cy="-500.5" rx="46.4046" ry="18"/>
<text text-anchor="middle" x="933.98" y="-496.3" font-family="Times,serif" font-size="14.00">CoreNode</text>
</g>
<!-- CoreNode&#45;&gt;BaseStationUnit -->
<g id="edge19" class="edge"><title>CoreNode&#45;&gt;BaseStationUnit</title>
<path fill="none" stroke="#12fbd3" d="M913.233,-477.129C901.08,-464.024 885.73,-447.472 873.313,-434.083"/>
<ellipse fill="none" stroke="#12fbd3" cx="916.036" cy="-480.151" rx="4.00002" ry="4.00002"/>
<polygon fill="#12fbd3" stroke="#12fbd3" points="873.188,-433.947 869.687,-423.555 869.788,-430.281 866.388,-426.615 866.388,-426.615 866.388,-426.615 869.788,-430.281 863.088,-429.675 873.188,-433.947 873.188,-433.947"/>
</g>
<!-- CoreNode&#45;&gt;PaperTrail::Version -->
<g id="edge18" class="edge"><title>CoreNode&#45;&gt;PaperTrail::Version</title>
<path fill="none" stroke="#c9c698" d="M972.761,-483.892C1015.11,-465.601 1076.98,-434.659 1076.98,-410 1076.98,-410 1076.98,-410 1076.98,-249 1076.98,-239.797 1039.65,-210.757 1015.98,-200 987.969,-187.273 955.28,-179.136 926.029,-173.95"/>
<ellipse fill="none" stroke="#c9c698" cx="969.041" cy="-485.477" rx="4.00002" ry="4.00002"/>
<polygon fill="#c9c698" stroke="#c9c698" points="925.7,-173.894 916.585,-167.798 920.77,-173.065 915.839,-172.236 915.839,-172.236 915.839,-172.236 920.77,-173.065 915.093,-176.673 925.7,-173.894 925.7,-173.894"/>
<text text-anchor="middle" x="1100.31" y="-331.8" font-family="Times,serif" font-size="14.00">versions</text>
</g>
<!-- Equipment&#45;&gt;EquipmentContainer -->
<g id="edge20" class="edge"><title>Equipment&#45;&gt;EquipmentContainer</title>
<path fill="none" stroke="#a881d2" d="M252.295,-146.748C227.148,-136.183 194.243,-122.359 167.789,-111.245"/>
<ellipse fill="none" stroke="#a881d2" cx="256.295" cy="-148.428" rx="4.00001" ry="4.00001"/>
<polygon fill="#a881d2" stroke="#a881d2" points="167.58,-111.158 160.104,-103.136 162.971,-109.221 158.361,-107.284 158.361,-107.284 158.361,-107.284 162.971,-109.221 156.618,-111.433 167.58,-111.158 167.58,-111.158"/>
</g>
<!-- Geometry -->
<g id="node16" class="node"><title>Geometry</title>
<ellipse fill="none" stroke="black" cx="1650.98" cy="-500.5" rx="45.4355" ry="18"/>
<text text-anchor="middle" x="1650.98" y="-496.3" font-family="Times,serif" font-size="14.00">Geometry</text>
</g>
<!-- Location -->
<g id="node19" class="node"><title>Location</title>
<ellipse fill="none" stroke="black" cx="1692.98" cy="-409" rx="41.5766" ry="18"/>
<text text-anchor="middle" x="1692.98" y="-404.8" font-family="Times,serif" font-size="14.00">Location</text>
</g>
<!-- Geometry&#45;&gt;Location -->
<g id="edge21" class="edge"><title>Geometry&#45;&gt;Location</title>
<path fill="none" stroke="#d332bd" d="M1662.45,-475.068C1668.4,-462.371 1675.66,-446.903 1681.61,-434.235"/>
<ellipse fill="none" stroke="#d332bd" cx="1660.58" cy="-479.045" rx="4.00002" ry="4.00002"/>
<ellipse fill="#d332bd" stroke="#d332bd" cx="1683.42" cy="-430.38" rx="4.00002" ry="4.00002"/>
</g>
<!-- GroupClassification -->
<g id="node17" class="node"><title>GroupClassification</title>
<ellipse fill="none" stroke="black" cx="1889.98" cy="-500.5" rx="80.7007" ry="18"/>
<text text-anchor="middle" x="1889.98" y="-496.3" font-family="Times,serif" font-size="14.00">GroupClassification</text>
</g>
<!-- SubGroupClassification -->
<g id="node31" class="node"><title>SubGroupClassification</title>
<ellipse fill="none" stroke="black" cx="1889.98" cy="-409" rx="94.7242" ry="18"/>
<text text-anchor="middle" x="1889.98" y="-404.8" font-family="Times,serif" font-size="14.00">SubGroupClassification</text>
</g>
<!-- GroupClassification&#45;&gt;SubGroupClassification -->
<g id="edge22" class="edge"><title>GroupClassification&#45;&gt;SubGroupClassification</title>
<path fill="none" stroke="#8b2225" d="M1889.98,-473.903C1889.98,-462.441 1889.98,-448.914 1889.98,-437.263"/>
<ellipse fill="none" stroke="#8b2225" cx="1889.98" cy="-478.243" rx="4" ry="4"/>
<polygon fill="#8b2225" stroke="#8b2225" points="1889.98,-437.204 1894.48,-427.203 1889.98,-432.204 1889.98,-427.204 1889.98,-427.204 1889.98,-427.204 1889.98,-432.204 1885.48,-427.204 1889.98,-437.204 1889.98,-437.204"/>
</g>
<!-- LinkType -->
<g id="node18" class="node"><title>LinkType</title>
<ellipse fill="none" stroke="black" cx="922.98" cy="-250" rx="44.225" ry="18"/>
<text text-anchor="middle" x="922.98" y="-245.8" font-family="Times,serif" font-size="14.00">LinkType</text>
</g>
<!-- LinkType&#45;&gt;PaperTrail::Version -->
<g id="edge23" class="edge"><title>LinkType&#45;&gt;PaperTrail::Version</title>
<path fill="none" stroke="#ded55b" d="M902.2,-226.622C891.453,-215.048 878.326,-200.911 867.357,-189.098"/>
<ellipse fill="none" stroke="#ded55b" cx="905.219" cy="-229.873" rx="4.00002" ry="4.00002"/>
<polygon fill="#ded55b" stroke="#ded55b" points="867.311,-189.049 863.804,-178.659 863.909,-185.385 860.507,-181.721 860.507,-181.721 860.507,-181.721 863.909,-185.385 857.209,-184.783 867.311,-189.049 867.311,-189.049"/>
<text text-anchor="middle" x="912.311" y="-202.8" font-family="Times,serif" font-size="14.00">versions</text>
</g>
<!-- Modem -->
<g id="node20" class="node"><title>Modem</title>
<ellipse fill="none" stroke="black" cx="290.98" cy="-250" rx="37.7352" ry="18"/>
<text text-anchor="middle" x="290.98" y="-245.8" font-family="Times,serif" font-size="14.00">Modem</text>
</g>
<!-- Modem&#45;&gt;Equipment -->
<g id="edge24" class="edge"><title>Modem&#45;&gt;Equipment</title>
<path fill="none" stroke="#1d966b" d="M290.98,-223.257C290.98,-212.815 290.98,-200.788 290.98,-190.383"/>
<ellipse fill="none" stroke="#1d966b" cx="290.98" cy="-227.595" rx="4" ry="4"/>
<ellipse fill="#1d966b" stroke="#1d966b" cx="290.98" cy="-186.095" rx="4" ry="4"/>
</g>
<!-- Modulation -->
<g id="node21" class="node"><title>Modulation</title>
<ellipse fill="none" stroke="black" cx="1246.98" cy="-500.5" rx="51.2501" ry="18"/>
<text text-anchor="middle" x="1246.98" y="-496.3" font-family="Times,serif" font-size="14.00">Modulation</text>
</g>
<!-- Modulation&#45;&gt;OperatingParameter -->
<g id="edge25" class="edge"><title>Modulation&#45;&gt;OperatingParameter</title>
<path fill="none" stroke="#f4e3df" d="M1246.98,-473.903C1246.98,-461.857 1246.98,-447.528 1246.98,-435.495"/>
<ellipse fill="none" stroke="#f4e3df" cx="1246.98" cy="-478.243" rx="4" ry="4"/>
<ellipse fill="#f4e3df" stroke="#f4e3df" cx="1246.98" cy="-431.204" rx="4" ry="4"/>
</g>
<!-- NetworkOperator -->
<g id="node22" class="node"><title>NetworkOperator</title>
<ellipse fill="none" stroke="black" cx="2060.98" cy="-500.5" rx="72.4549" ry="18"/>
<text text-anchor="middle" x="2060.98" y="-496.3" font-family="Times,serif" font-size="14.00">NetworkOperator</text>
</g>
<!-- Port -->
<g id="node25" class="node"><title>Port</title>
<ellipse fill="none" stroke="black" cx="670.98" cy="-18" rx="27" ry="18"/>
<text text-anchor="middle" x="670.98" y="-13.8" font-family="Times,serif" font-size="14.00">Port</text>
</g>
<!-- Radio -->
<g id="node26" class="node"><title>Radio</title>
<ellipse fill="none" stroke="black" cx="377.98" cy="-250" rx="31.4636" ry="18"/>
<text text-anchor="middle" x="377.98" y="-245.8" font-family="Times,serif" font-size="14.00">Radio</text>
</g>
<!-- Radio&#45;&gt;Equipment -->
<g id="edge26" class="edge"><title>Radio&#45;&gt;Equipment</title>
<path fill="none" stroke="#fdcb7e" d="M356.283,-228.052C343.207,-215.426 326.585,-199.378 313.384,-186.631"/>
<ellipse fill="none" stroke="#fdcb7e" cx="359.548" cy="-231.204" rx="4.00002" ry="4.00002"/>
<ellipse fill="#fdcb7e" stroke="#fdcb7e" cx="310.462" cy="-183.81" rx="4.00002" ry="4.00002"/>
</g>
<!-- RfPerformanceParameter -->
<g id="node27" class="node"><title>RfPerformanceParameter</title>
<ellipse fill="none" stroke="black" cx="1415.98" cy="-500.5" rx="99.9416" ry="18"/>
<text text-anchor="middle" x="1415.98" y="-496.3" font-family="Times,serif" font-size="14.00">RfPerformanceParameter</text>
</g>
<!-- RfPerformanceParameter&#45;&gt;OperatingParameter -->
<g id="edge27" class="edge"><title>RfPerformanceParameter&#45;&gt;OperatingParameter</title>
<path fill="none" stroke="#ad3c06" d="M1378.26,-479.522C1350.15,-464.637 1311.96,-444.413 1284.02,-429.616"/>
<ellipse fill="none" stroke="#ad3c06" cx="1381.84" cy="-481.42" rx="4.00002" ry="4.00002"/>
<ellipse fill="#ad3c06" stroke="#ad3c06" cx="1280.32" cy="-427.659" rx="4.00002" ry="4.00002"/>
</g>
<!-- Service -->
<g id="node28" class="node"><title>Service</title>
<ellipse fill="none" stroke="black" cx="670.98" cy="-91" rx="36.7489" ry="18"/>
<text text-anchor="middle" x="670.98" y="-86.8" font-family="Times,serif" font-size="14.00">Service</text>
</g>
<!-- Service&#45;&gt;Port -->
<g id="edge28" class="edge"><title>Service&#45;&gt;Port</title>
<path fill="none" stroke="#119ab8" d="M670.98,-64.791C670.98,-58.832 670.98,-52.4496 670.98,-46.3988"/>
<ellipse fill="none" stroke="#119ab8" cx="670.98" cy="-68.8129" rx="4" ry="4"/>
<polygon fill="#119ab8" stroke="#119ab8" points="670.98,-46.0288 675.48,-36.0288 670.98,-41.0288 670.98,-36.0288 670.98,-36.0288 670.98,-36.0288 670.98,-41.0288 666.48,-36.0289 670.98,-46.0288 670.98,-46.0288"/>
</g>
<!-- ServiceFragment&#45;&gt;Service -->
<g id="edge29" class="edge"><title>ServiceFragment&#45;&gt;Service</title>
<path fill="none" stroke="#838ee8" d="M670.98,-137.791C670.98,-131.832 670.98,-125.45 670.98,-119.399"/>
<ellipse fill="none" stroke="#838ee8" cx="670.98" cy="-141.813" rx="4" ry="4"/>
<polygon fill="#838ee8" stroke="#838ee8" points="670.98,-119.029 675.48,-109.029 670.98,-114.029 670.98,-109.029 670.98,-109.029 670.98,-109.029 670.98,-114.029 666.48,-109.029 670.98,-119.029 670.98,-119.029"/>
</g>
<!-- Status -->
<g id="node30" class="node"><title>Status</title>
<ellipse fill="none" stroke="black" cx="1016.98" cy="-250" rx="31.9567" ry="18"/>
<text text-anchor="middle" x="1016.98" y="-245.8" font-family="Times,serif" font-size="14.00">Status</text>
</g>
<!-- Status&#45;&gt;PaperTrail::Version -->
<g id="edge30" class="edge"><title>Status&#45;&gt;PaperTrail::Version</title>
<path fill="none" stroke="#c1f00e" d="M991.233,-230.655C976.644,-220.768 957.795,-208.824 939.98,-200 927.052,-193.597 912.648,-187.702 899.044,-182.648"/>
<ellipse fill="none" stroke="#c1f00e" cx="994.732" cy="-233.057" rx="4.00002" ry="4.00002"/>
<polygon fill="#c1f00e" stroke="#c1f00e" points="898.713,-182.528 890.845,-174.89 894.013,-180.824 889.312,-179.12 889.312,-179.12 889.312,-179.12 894.013,-180.824 887.778,-183.351 898.713,-182.528 898.713,-182.528"/>
<text text-anchor="middle" x="988.311" y="-202.8" font-family="Times,serif" font-size="14.00">versions</text>
</g>
<!-- User -->
<g id="node33" class="node"><title>User</title>
<ellipse fill="none" stroke="black" cx="2177.98" cy="-500.5" rx="27" ry="18"/>
<text text-anchor="middle" x="2177.98" y="-496.3" font-family="Times,serif" font-size="14.00">User</text>
</g>
<!-- Vicinity -->
<g id="node34" class="node"><title>Vicinity</title>
<ellipse fill="none" stroke="black" cx="1752.98" cy="-500.5" rx="38.6263" ry="18"/>
<text text-anchor="middle" x="1752.98" y="-496.3" font-family="Times,serif" font-size="14.00">Vicinity</text>
</g>
<!-- Vicinity&#45;&gt;Location -->
<g id="edge31" class="edge"><title>Vicinity&#45;&gt;Location</title>
<path fill="none" stroke="#de23ea" d="M1737.42,-476.292C1728.62,-463.157 1717.63,-446.771 1708.78,-433.576"/>
<ellipse fill="none" stroke="#de23ea" cx="1739.75" cy="-479.762" rx="4.00002" ry="4.00002"/>
<ellipse fill="#de23ea" stroke="#de23ea" cx="1706.35" cy="-429.937" rx="4.00002" ry="4.00002"/>
</g>
</g>
</svg>
