<?xml version="1.0" encoding="UTF-8" standalone="no"?>
<!-- Generator: Adobe Illustrator 16.0.0, SVG Export Plug-In . SVG Version: 6.00 Build 0)  -->

<svg
   xmlns:dc="http://purl.org/dc/elements/1.1/"
   xmlns:cc="http://creativecommons.org/ns#"
   xmlns:rdf="http://www.w3.org/1999/02/22-rdf-syntax-ns#"
   xmlns:svg="http://www.w3.org/2000/svg"
   xmlns="http://www.w3.org/2000/svg"
   xmlns:sodipodi="http://sodipodi.sourceforge.net/DTD/sodipodi-0.dtd"
   xmlns:inkscape="http://www.inkscape.org/namespaces/inkscape"
   version="1.1"
   id="Layer_1"
   x="0px"
   y="0px"
   width="25px"
   height="33.92px"
   viewBox="-22.704 -5.611 25 33.92"
   enable-background="new -22.704 -5.611 25 33.92"
   xml:space="preserve"
   inkscape:version="0.91 r13725"
   sodipodi:docname="core_node_operational.svg"><metadata
     id="metadata11"><rdf:RDF><cc:Work
         rdf:about=""><dc:format>image/svg+xml</dc:format><dc:type
           rdf:resource="http://purl.org/dc/dcmitype/StillImage" /></cc:Work></rdf:RDF></metadata><defs
     id="defs9" /><sodipodi:namedview
     pagecolor="#ffffff"
     bordercolor="#666666"
     borderopacity="1"
     objecttolerance="10"
     gridtolerance="10"
     guidetolerance="10"
     inkscape:pageopacity="0"
     inkscape:pageshadow="2"
     inkscape:window-width="640"
     inkscape:window-height="480"
     id="namedview7"
     showgrid="false"
     inkscape:zoom="6.9575475"
     inkscape:cx="12.5"
     inkscape:cy="16.959999"
     inkscape:window-x="0"
     inkscape:window-y="0"
     inkscape:window-maximized="0"
     inkscape:current-layer="Layer_1" /><path
     fill="#649131"
     d="M-9.976-5.607c-0.083,0-0.145-0.006-0.228-0.003c-0.067,0-0.156,0.004-0.225,0.004  c-6.778,0-12.275,5.567-12.275,12.274S-10.2,28.31-10.2,28.31S2.296,13.351,2.296,6.667S-3.196-5.607-9.976-5.607z"
     id="path3" /><g
     transform="matrix(1 0 0 1 -15.0527 12.7656)"
     style="font-size:12px;font-family:FontAwesome;fill:#ffffff"
     id="text5"><path
       d="m 2.5714286,-1.5 c 0,-0.1138393 -0.1004465,-0.2142857 -0.2142857,-0.2142857 l -0.4285715,0 c -0.1138393,0 -0.2142857,0.1004464 -0.2142857,0.2142857 l 0,0.4285714 c 0,0.11383931 0.1004464,0.21428574 0.2142857,0.21428574 l 0.4285715,0 c 0.1138392,0 0.2142857,-0.10044643 0.2142857,-0.21428574 l 0,-0.4285714 z m 0,-1.7142857 c 0,-0.1138393 -0.1004465,-0.2142857 -0.2142857,-0.2142857 l -0.4285715,0 c -0.1138393,0 -0.2142857,0.1004464 -0.2142857,0.2142857 l 0,0.4285714 c 0,0.1138393 0.1004464,0.2142857 0.2142857,0.2142857 l 0.4285715,0 c 0.1138392,0 0.2142857,-0.1004464 0.2142857,-0.2142857 l 0,-0.4285714 z m 1.7142857,0 c 0,-0.1138393 -0.1004464,-0.2142857 -0.2142857,-0.2142857 l -0.4285715,0 c -0.1138392,0 -0.2142857,0.1004464 -0.2142857,0.2142857 l 0,0.4285714 c 0,0.1138393 0.1004465,0.2142857 0.2142857,0.2142857 l 0.4285715,0 c 0.1138393,0 0.2142857,-0.1004464 0.2142857,-0.2142857 l 0,-0.4285714 z M 2.5714286,-4.9285714 c 0,-0.1138393 -0.1004465,-0.2142857 -0.2142857,-0.2142857 l -0.4285715,0 c -0.1138393,0 -0.2142857,0.1004464 -0.2142857,0.2142857 l 0,0.4285714 c 0,0.1138393 0.1004464,0.2142857 0.2142857,0.2142857 l 0.4285715,0 c 0.1138392,0 0.2142857,-0.1004464 0.2142857,-0.2142857 l 0,-0.4285714 z M 7.7142857,-1.5 c 0,-0.1138393 -0.1004464,-0.2142857 -0.2142857,-0.2142857 l -0.4285714,0 c -0.1138393,0 -0.2142857,0.1004464 -0.2142857,0.2142857 l 0,0.4285714 c 0,0.11383931 0.1004464,0.21428574 0.2142857,0.21428574 l 0.4285714,0 c 0.1138393,0 0.2142857,-0.10044643 0.2142857,-0.21428574 l 0,-0.4285714 z M 6,-3.2142857 C 6,-3.328125 5.8995536,-3.4285714 5.7857143,-3.4285714 l -0.4285714,0 c -0.1138393,0 -0.2142858,0.1004464 -0.2142858,0.2142857 l 0,0.4285714 c 0,0.1138393 0.1004465,0.2142857 0.2142858,0.2142857 l 0.4285714,0 C 5.8995536,-2.5714286 6,-2.671875 6,-2.7857143 L 6,-3.2142857 Z M 4.2857143,-4.9285714 c 0,-0.1138393 -0.1004464,-0.2142857 -0.2142857,-0.2142857 l -0.4285715,0 c -0.1138392,0 -0.2142857,0.1004464 -0.2142857,0.2142857 l 0,0.4285714 c 0,0.1138393 0.1004465,0.2142857 0.2142857,0.2142857 l 0.4285715,0 c 0.1138393,0 0.2142857,-0.1004464 0.2142857,-0.2142857 l 0,-0.4285714 z M 2.5714286,-6.6428571 c 0,-0.1138393 -0.1004465,-0.2142858 -0.2142857,-0.2142858 l -0.4285715,0 c -0.1138393,0 -0.2142857,0.1004465 -0.2142857,0.2142858 l 0,0.4285714 C 1.7142857,-6.1004464 1.8147321,-6 1.9285714,-6 l 0.4285715,0 c 0.1138392,0 0.2142857,-0.1004464 0.2142857,-0.2142857 l 0,-0.4285714 z m 5.1428571,3.4285714 C 7.7142857,-3.328125 7.6138393,-3.4285714 7.5,-3.4285714 l -0.4285714,0 c -0.1138393,0 -0.2142857,0.1004464 -0.2142857,0.2142857 l 0,0.4285714 c 0,0.1138393 0.1004464,0.2142857 0.2142857,0.2142857 l 0.4285714,0 c 0.1138393,0 0.2142857,-0.1004464 0.2142857,-0.2142857 l 0,-0.4285714 z M 6,-4.9285714 C 6,-5.0424107 5.8995536,-5.1428571 5.7857143,-5.1428571 l -0.4285714,0 c -0.1138393,0 -0.2142858,0.1004464 -0.2142858,0.2142857 l 0,0.4285714 c 0,0.1138393 0.1004465,0.2142857 0.2142858,0.2142857 l 0.4285714,0 C 5.8995536,-4.2857143 6,-4.3861607 6,-4.5 L 6,-4.9285714 Z M 4.2857143,-6.6428571 c 0,-0.1138393 -0.1004464,-0.2142858 -0.2142857,-0.2142858 l -0.4285715,0 c -0.1138392,0 -0.2142857,0.1004465 -0.2142857,0.2142858 l 0,0.4285714 C 3.4285714,-6.1004464 3.5290179,-6 3.6428571,-6 l 0.4285715,0 c 0.1138393,0 0.2142857,-0.1004464 0.2142857,-0.2142857 l 0,-0.4285714 z M 2.5714286,-8.3571429 c 0,-0.1138392 -0.1004465,-0.2142857 -0.2142857,-0.2142857 l -0.4285715,0 c -0.1138393,0 -0.2142857,0.1004465 -0.2142857,0.2142857 l 0,0.4285715 c 0,0.1138393 0.1004464,0.2142857 0.2142857,0.2142857 l 0.4285715,0 c 0.1138392,0 0.2142857,-0.1004464 0.2142857,-0.2142857 l 0,-0.4285715 z m 5.1428571,3.4285715 c 0,-0.1138393 -0.1004464,-0.2142857 -0.2142857,-0.2142857 l -0.4285714,0 c -0.1138393,0 -0.2142857,0.1004464 -0.2142857,0.2142857 l 0,0.4285714 c 0,0.1138393 0.1004464,0.2142857 0.2142857,0.2142857 l 0.4285714,0 c 0.1138393,0 0.2142857,-0.1004464 0.2142857,-0.2142857 l 0,-0.4285714 z M 6,-6.6428571 C 6,-6.7566964 5.8995536,-6.8571429 5.7857143,-6.8571429 l -0.4285714,0 c -0.1138393,0 -0.2142858,0.1004465 -0.2142858,0.2142858 l 0,0.4285714 C 5.1428571,-6.1004464 5.2433036,-6 5.3571429,-6 l 0.4285714,0 C 5.8995536,-6 6,-6.1004464 6,-6.2142857 L 6,-6.6428571 Z M 4.2857143,-8.3571429 c 0,-0.1138392 -0.1004464,-0.2142857 -0.2142857,-0.2142857 l -0.4285715,0 c -0.1138392,0 -0.2142857,0.1004465 -0.2142857,0.2142857 l 0,0.4285715 c 0,0.1138393 0.1004465,0.2142857 0.2142857,0.2142857 l 0.4285715,0 c 0.1138393,0 0.2142857,-0.1004464 0.2142857,-0.2142857 l 0,-0.4285715 z m 3.4285714,1.7142858 c 0,-0.1138393 -0.1004464,-0.2142858 -0.2142857,-0.2142858 l -0.4285714,0 c -0.1138393,0 -0.2142857,0.1004465 -0.2142857,0.2142858 l 0,0.4285714 C 6.8571429,-6.1004464 6.9575893,-6 7.0714286,-6 L 7.5,-6 c 0.1138393,0 0.2142857,-0.1004464 0.2142857,-0.2142857 l 0,-0.4285714 z M 6,-8.3571429 C 6,-8.4709821 5.8995536,-8.5714286 5.7857143,-8.5714286 l -0.4285714,0 c -0.1138393,0 -0.2142858,0.1004465 -0.2142858,0.2142857 l 0,0.4285715 c 0,0.1138393 0.1004465,0.2142857 0.2142858,0.2142857 l 0.4285714,0 C 5.8995536,-7.7142857 6,-7.8147321 6,-7.9285714 l 0,-0.4285715 z m 1.7142857,0 c 0,-0.1138392 -0.1004464,-0.2142857 -0.2142857,-0.2142857 l -0.4285714,0 c -0.1138393,0 -0.2142857,0.1004465 -0.2142857,0.2142857 l 0,0.4285715 c 0,0.1138393 0.1004464,0.2142857 0.2142857,0.2142857 l 0.4285714,0 c 0.1138393,0 0.2142857,-0.1004464 0.2142857,-0.2142857 l 0,-0.4285715 z M 6,0.85714286 l 0,-1.5 C 6,-0.75669643 5.8995536,-0.85714286 5.7857143,-0.85714286 l -2.1428572,0 c -0.1138392,0 -0.2142857,0.10044643 -0.2142857,0.21428572 l 0,1.5 -2.57142854,0 0,-10.28571426 7.71428574,0 0,10.28571426 -2.5714286,0 z M 9.4285714,-9.8571429 C 9.4285714,-10.091518 9.234375,-10.285714 9,-10.285714 l -8.57142857,0 C 0.19419643,-10.285714 0,-10.091518 0,-9.8571429 L 0,1.2857143 c 0,0.234375 0.19419643,0.4285714 0.42857143,0.4285714 L 9,1.7142857 c 0.234375,0 0.4285714,-0.1941964 0.4285714,-0.4285714 l 0,-11.1428572 z"
       style="font-size:12px;font-family:FontAwesome;fill:#ffffff"
       id="path3340" /></g></svg>