<?xml version="1.0" encoding="utf-8"?>
<!-- Generator: Adobe Illustrator 16.0.0, SVG Export Plug-In . SVG Version: 6.00 Build 0)  -->
<!DOCTYPE svg PUBLIC "-//W3C//DTD SVG 1.1//EN" "http://www.w3.org/Graphics/SVG/1.1/DTD/svg11.dtd">
<svg version="1.1" id="Layer_1" xmlns="http://www.w3.org/2000/svg" xmlns:xlink="http://www.w3.org/1999/xlink" x="0px" y="0px"
	 width="16.729px" height="22.698px" viewBox="0 0 16.729 22.698" enable-background="new 0 0 16.729 22.698" xml:space="preserve">
<path fill="#F34D01" d="M8.516,0.003c-0.057,0-0.098-0.004-0.152-0.002c-0.047,0-0.105,0.003-0.151,0.003
	C3.676,0.004,0,3.729,0,8.217c0,4.488,8.365,14.481,8.365,14.481s8.363-10.009,8.363-14.482S13.051,0.003,8.516,0.003z
	 M11.984,10.56l-1.662,1.662l-1.958-1.959l-1.959,1.959L4.744,10.56l1.958-1.958L4.744,6.643l1.661-1.661l1.959,1.958l1.958-1.958
	l1.662,1.661l-1.959,1.959L11.984,10.56z"/>
</svg>
