<?xml version="1.0" encoding="utf-8"?>
<!-- Generator: Adobe Illustrator 16.0.0, SVG Export Plug-In . SVG Version: 6.00 Build 0)  -->
<!DOCTYPE svg PUBLIC "-//W3C//DTD SVG 1.1//EN" "http://www.w3.org/Graphics/SVG/1.1/DTD/svg11.dtd">
<svg version="1.1" id="Layer_1" xmlns="http://www.w3.org/2000/svg" xmlns:xlink="http://www.w3.org/1999/xlink" x="0px" y="0px"
   width="2940.477px" height="1740.161px" viewBox="0 0 2940.477 1740.161" enable-background="new 0 0 2940.477 1740.161"
   xml:space="preserve">
<g>
  <g>
    <g>
      <g>
        <g>
          <path d="M109.366,1647.358l-13.36-41.146l-14.314,41.146H109.366z M108.805,1587.239l33.597,96.578H121.52l-6.961-20.854
            H76.387l-7.241,20.854h-19.76l34.832-96.578H108.805z"/>
          <path d="M263.933,1667.876c2.246,0.197,5.697,0.281,8.14,0.281c8.813,0,16.419-0.617,22.454-6.652
            c8.111-8.141,8.673-22.594,8.673-27.254c0-13.641-4.659-26.215-17.626-29.779c-4.267-1.207-9.796-1.881-21.641-1.348V1667.876
             M242.91,1587.464l31.969,0.168c5.333,0,21.64,0.111,33.26,8.645c12.153,8.98,16.476,24.223,16.476,37.975
            c0,29.668-15.942,45.133-34.242,48.5c-3.593,0.674-7.605,1.066-17.373,1.066H242.91V1587.464z"/>
          <rect x="364.723" y="1586.931" width="20.686" height="96.887"/>
          <polygon points="443.984,1587.632 469.245,1663.386 494.618,1587.632 515.079,1587.632 479.519,1683.817 456.952,1683.817
            421.362,1587.632          "/>
          <rect x="550.275" y="1586.931" width="20.714" height="96.887"/>
          <path d="M631.138,1652.944c0,4.52-0.253,18.299,17.514,18.299c11.228,0,18.3-5.332,18.3-13.471
            c0-8.533-6.034-10.021-18.3-12.969c-22.987-5.725-35.533-12.545-35.533-29.273c0-15.887,11.396-29.92,38.228-29.92
            c9.992,0,21.893,2.303,29.106,11.367c5.473,6.961,5.473,14.707,5.473,17.879h-19.899c-0.253-3.34-1.348-14.68-15.634-14.68
            c-9.655,0-15.886,5.166-15.886,13.107c0,8.955,7.072,10.555,20.966,14.035c16.7,3.984,33.147,8.531,33.147,27.365
            c0,17.43-14.427,31.406-41.175,31.406c-36.992,0-37.273-23.744-37.414-33.146H631.138"/>
          <rect x="728.503" y="1586.931" width="20.686" height="96.887"/>
          <path d="M818.038,1663.245c2.946,4.014,7.887,7.719,17.485,7.719c8.448,0,14.174-2.863,18.02-8.869
            c3.228-4.885,6.596-12.322,6.596-27.676c0-4.742-0.421-11.422-2.441-17.232c-3.986-11.93-12.153-17.148-22.033-17.148
            c-7.774,0-13.894,3.227-17.767,8.139c-5.474,6.709-7.073,17.121-7.073,28.066
            C810.824,1645.478,812.312,1655.808,818.038,1663.245 M835.523,1585.218c10.301,0,24.503,2.414,33.962,13.08
            c10.272,11.787,12.321,26.889,12.321,36.318c0,14.062-4.294,29.021-12.209,37.834c-10.666,12.07-26.271,13.781-34.354,13.781
            c-12.658,0-25.373-3.984-34.187-13.248c-10.497-11.197-11.872-27.252-11.872-36.037
            C789.185,1611.292,800.805,1585.218,835.523,1585.218"/>
          <polygon points="923.122,1587.239 953.069,1587.239 989.248,1663.245 989.248,1587.239 1008.503,1587.239 1008.503,1683.817
            980.07,1683.817 942.656,1603.657 942.656,1683.817 923.122,1683.817          "/>
          <path d="M1140.979,1663.245c2.976,4.014,7.888,7.719,17.515,7.719c8.419,0,14.174-2.863,18.02-8.869
            c3.228-4.885,6.567-12.322,6.567-27.676c0-4.742-0.421-11.422-2.413-17.232c-4.014-11.93-12.125-17.148-22.062-17.148
            c-7.746,0-13.894,3.227-17.767,8.139c-5.473,6.709-7.072,17.121-7.072,28.066
            C1133.768,1645.478,1135.255,1655.808,1140.979,1663.245 M1158.494,1585.218c10.272,0,24.447,2.414,33.933,13.08
            c10.273,11.787,12.294,26.889,12.294,36.318c0,14.062-4.266,29.021-12.126,37.834c-10.72,12.07-26.325,13.781-34.353,13.781
            c-12.687,0-25.401-3.984-34.215-13.248c-10.553-11.197-11.9-27.252-11.9-36.037
            C1112.127,1611.292,1123.747,1585.218,1158.494,1585.218"/>
          <polygon points="1245.644,1587.323 1307.925,1587.323 1307.925,1602.815 1266.385,1602.815 1266.385,1626.646
            1305.118,1626.646 1305.118,1642.671 1266.385,1642.671 1266.385,1683.817 1245.644,1683.817           "/>
          <path d="M1429.456,1667.876c2.273,0.197,5.726,0.281,8.139,0.281c8.814,0,16.42-0.617,22.455-6.652
            c8.167-8.141,8.7-22.594,8.7-27.254c0-13.641-4.687-26.215-17.626-29.779c-4.322-1.207-9.768-1.881-21.668-1.348V1667.876
             M1408.49,1587.464l31.94,0.168c5.305,0,21.612,0.111,33.26,8.645c12.153,8.98,16.434,24.223,16.434,37.975
            c0,29.668-15.929,45.133-34.229,48.5c-3.564,0.674-7.606,1.066-17.374,1.066h-30.031V1587.464z"/>
          <rect x="1530.26" y="1586.931" width="20.658" height="96.887"/>
          <polygon points="1593.355,1587.239 1627.231,1587.239 1647.638,1657.464 1669.67,1587.239 1702.51,1587.239 1702.51,1683.817
            1681.964,1683.817 1681.964,1600.964 1655.637,1683.817 1638.573,1683.817 1612.75,1600.964 1612.75,1683.817
            1593.355,1683.817           "/>
          <polygon points="1747.361,1587.239 1812.027,1587.239 1812.027,1602.983 1768.103,1602.983 1768.103,1625.944
            1809.221,1625.944 1809.221,1641.718 1768.103,1641.718 1768.103,1667.792 1813.515,1667.792 1813.515,1683.817
            1747.361,1683.817           "/>
          <polygon points="1854.719,1587.239 1884.638,1587.239 1920.873,1663.245 1920.873,1587.239 1940.071,1587.239
            1940.071,1683.817 1911.639,1683.817 1874.225,1603.657 1874.225,1683.817 1854.719,1683.817           "/>
          <path d="M2000.78,1652.944c0,4.52-0.224,18.299,17.543,18.299c11.198,0,18.327-5.332,18.327-13.471
            c0-8.533-6.062-10.021-18.327-12.969c-22.959-5.725-35.562-12.545-35.562-29.273c0-15.887,11.395-29.92,38.256-29.92
            c10.02,0,21.893,2.303,29.105,11.367c5.501,6.961,5.501,14.707,5.501,17.879h-19.956c-0.225-3.34-1.291-14.68-15.605-14.68
            c-9.654,0-15.857,5.166-15.857,13.107c0,8.955,7.045,10.555,20.909,14.035c16.729,3.984,33.177,8.531,33.177,27.365
            c0,17.43-14.455,31.406-41.147,31.406c-36.992,0-37.302-23.744-37.47-33.146H2000.78"/>
          <rect x="2098.09" y="1586.931" width="20.714" height="96.887"/>
          <path d="M2187.652,1663.245c2.946,4.014,7.916,7.719,17.543,7.719c8.447,0,14.146-2.863,17.99-8.869
            c3.228-4.885,6.597-12.322,6.597-27.676c0-4.742-0.421-11.422-2.414-17.232c-3.958-11.93-12.154-17.148-22.062-17.148
            c-7.746,0-13.894,3.227-17.766,8.139c-5.474,6.709-7.073,17.121-7.073,28.066
            C2180.468,1645.478,2181.955,1655.808,2187.652,1663.245 M2205.195,1585.218c10.301,0,24.419,2.414,33.933,13.08
            c10.272,11.787,12.294,26.889,12.294,36.318c0,14.062-4.267,29.021-12.153,37.834c-10.723,12.07-26.327,13.781-34.41,13.781
            c-12.631,0-25.317-3.984-34.158-13.248c-10.525-11.197-11.872-27.252-11.872-36.037
            C2158.828,1611.292,2170.448,1585.218,2205.195,1585.218"/>
          <polygon points="2292.765,1587.239 2322.713,1587.239 2358.92,1663.245 2358.92,1587.239 2378.146,1587.239 2378.146,1683.817
            2349.741,1683.817 2312.271,1603.657 2312.271,1683.817 2292.765,1683.817           "/>
          <path d="M2505.852,1667.876c2.273,0.197,5.698,0.281,8.11,0.281c8.871,0,16.42-0.617,22.484-6.652
            c8.139-8.141,8.672-22.594,8.672-27.254c0-13.641-4.659-26.215-17.599-29.779c-4.321-1.207-9.795-1.881-21.668-1.348V1667.876
             M2484.857,1587.464l31.94,0.168c5.332,0,21.641,0.111,33.288,8.645c12.124,8.98,16.42,24.223,16.42,37.975
            c0,29.668-15.942,45.133-34.187,48.5c-3.648,0.674-7.662,1.066-17.401,1.066h-30.061V1587.464z"/>
          <path d="M2659.296,1647.358l-13.36-41.146l-14.314,41.146H2659.296z M2658.734,1587.239l33.568,96.578h-20.854l-6.987-20.854
            h-38.172l-7.214,20.854h-19.787l34.859-96.578H2658.734z"/>
          <polygon points="2741.758,1603.265 2713.045,1603.265 2713.045,1587.239 2791.353,1587.239 2791.353,1603.265
            2762.611,1603.265 2762.611,1683.817 2741.758,1683.817           "/>
          <path d="M2872.103,1647.358l-13.36-41.146l-14.315,41.146H2872.103z M2871.541,1587.239l33.54,96.578h-20.799l-6.988-20.854
            h-38.171l-7.27,20.854h-19.759l34.887-96.578H2871.541z"/>
        </g>
        <g>
          <g>
            <path fill="#00AEEF" d="M56.964,1239.54h48.36v165.205h-48.36V1239.54z M55.337,1169.063h51.615v42.072H55.337V1169.063z"/>
            <path fill="#00AEEF" d="M155.565,1269.265c0-0.619,0-18.582-0.982-30.004h46.367l1.318,24.811
              c4.547-7.551,17.627-28.74,53.524-28.74c32.334,0,46.03,19.59,50.269,31.014c3.648,10.104,4.604,18.637,4.604,49.287v89.17
              h-49.314V1302.3c0-6.904,0-12.771-2.61-18.02c-3.593-7.158-11.114-14.033-23.521-14.033c-10.441,0-19.899,4.91-25.12,12.742
              c-2.919,4.209-5.894,12.406-5.894,25.119v96.693h-48.641V1269.265"/>
            <path fill="#00AEEF" d="M458.552,1402.499c-15.662,4.238-29.695,5.25-37.498,5.25c-48.669,0-48.669-30.734-48.669-44.459
              v-90.406h-31.659v-31.996h31.659v-32.334l47.968-17.654v49.988h39.209v31.996h-39.209v74.408
              c0.309,15.016,0.309,24.529,21.893,24.529c7.185,0,10.469-0.363,16.307-1.01V1402.499"/>
            <path fill="#00AEEF" d="M595.997,1304.235c0-7.521-0.646-36.936-28.713-36.936c-21.219,0-30.061,17.682-31.014,36.936H595.997
               M534.614,1334.577c0,10.777,0,44.094,33.625,44.094c12.125,0,24.166-4.604,28.769-22.904h44.065
              c-0.646,7.889-2.273,21.893-15.661,35.955c-12.069,12.742-33.653,19.227-57.819,19.227c-14.062,0-40.781-2.582-58.1-20.574
              c-15.043-15.662-21.246-37.834-21.246-64.273c0-26.748,6.539-58.801,34.27-78.055c12.743-8.506,28.433-13.697,46.396-13.697
              c23.493,0,51.588,9.121,66.632,39.826c11.087,22.539,10.413,46.705,9.768,60.402H534.614z"/>
            <path fill="#00AEEF" d="M684.466,1280.407c0-7.832-1.292-31.717-2.246-41.176h45.357l1.01,31.717
              c6.203-14.062,16.953-33.961,56.135-32.025v43.42c-48.978-4.574-51.868,20.574-51.868,41.176v81.283h-48.388V1280.407"/>
            <path fill="#00AEEF" d="M819.301,1269.265c0-0.619,0-18.582-0.954-30.004h46.339l1.319,24.811
              c4.575-7.551,17.626-28.74,53.524-28.74c32.334,0,46.059,19.59,50.297,31.014c3.62,10.104,4.574,18.637,4.574,49.287v89.17
              h-49.286V1302.3c0-6.904,0-12.771-2.638-18.02c-3.564-7.158-11.087-14.033-23.492-14.033c-10.47,0-19.928,4.91-25.148,12.742
              c-2.919,4.209-5.866,12.406-5.866,25.119v96.693h-48.669V1269.265"/>
            <path fill="#00AEEF" d="M1125.571,1304.235c0-7.521-0.646-36.936-28.742-36.936c-21.218,0-30.059,17.682-30.985,36.936
              H1125.571 M1064.188,1334.577c0,10.777,0,44.094,33.623,44.094c12.07,0,24.167-4.604,28.714-22.904h44.122
              c-0.702,7.889-2.302,21.893-15.718,35.955c-12.068,12.742-33.625,19.227-57.763,19.227c-14.062,0-40.81-2.582-58.127-20.574
              c-15.044-15.662-21.191-37.834-21.191-64.273c0-26.748,6.512-58.801,34.242-78.055c12.715-8.506,28.433-13.697,46.396-13.697
              c23.492,0,51.56,9.121,66.604,39.826c11.087,22.539,10.413,46.705,9.768,60.402H1064.188z"/>
            <path fill="#00AEEF" d="M1311.011,1402.499c-15.688,4.238-29.722,5.25-37.553,5.25c-48.641,0-48.641-30.734-48.641-44.459
              v-90.406h-31.632v-31.996h31.632v-32.334l48.023-17.654v49.988h39.182v31.996h-39.182v74.408
              c0.309,15.016,0.309,24.529,21.864,24.529c7.157,0,10.469-0.363,16.306-1.01V1402.499"/>
          </g>
          <g>
            <path d="M1480.258,1357.087c0.673,10.469,7.214,22.537,27.492,22.537c17.233,0,25.429-9.795,25.429-19.59
              c0-7.494-3.901-13.361-22.848-18.637l-30.073-8.141c-13.388-3.9-41.792-12.068-41.792-45.693
              c0-32.025,29.387-51.615,72.231-51.615c33.905,0,61.383,15.689,62.674,48.641h-44.094
              c-1.291-18.244-15.998-19.535-23.52-19.535c-13.052,0-22.862,6.146-22.862,16.279c0,11.115,8.154,13.389,22.553,17.318
              l29.666,8.166c30.09,8.141,44.095,23.492,44.095,46.059c0,28.377-24.502,56.809-75.753,56.809
              c-21.233,0-41.47-4.604-56.485-20.236c-10.778-11.451-11.732-24.531-12.069-32.361H1480.258"/>
            <path d="M1695.437,1377.015c21.273,0,35.617-12.715,35.617-56.443c0-21.92-4.267-52.262-36.235-52.262
              c-35.28,0-35.617,40.811-35.617,55.854C1659.201,1361.044,1671.607,1377.015,1695.437,1377.015 M1694.818,1235.948
              c59.756,0,85.521,40.5,85.521,86.588c0,46.311-26.776,88.158-86.531,88.158c-47.013,0-84.231-29.105-84.231-86.896
              C1609.577,1283.972,1629.787,1235.948,1694.818,1235.948"/>
            <rect x="1823.76" y="1168.671" width="48.304" height="236.074"/>
            <path d="M1969.093,1239.905v98.293c0,14.342,0,36.205,25.794,36.205c30.986,0,30.986-23.154,30.986-51.223v-83.275h49.65
              v108.705c0.618,35.617,0.982,39.828,0.982,44.094c0.309,4.574,0.646,7.521,1.291,12.041h-47.04l-1.601-21.893
              c-4.911,7.242-17.289,26.188-48.696,26.188c-22.173,0-40.474-10.133-49.596-22.23c-10.777-13.389-10.777-36.234-10.777-44.43
              v-102.475H1969.093"/>
            <path d="M2225.375,1402.499c-15.689,4.238-29.723,5.25-37.582,5.25c-48.641,0-48.641-30.734-48.641-44.459v-90.406h-31.66
              v-31.996h31.66v-32.334l48.023-17.654v49.988h39.182v31.996h-39.182v74.408c0.309,15.016,0.309,24.529,21.835,24.529
              c7.215,0,10.499-0.363,16.364-1.01V1402.499"/>
            <path d="M2262.536,1239.54h48.332v165.205h-48.332V1239.54z M2260.881,1169.063h51.615v42.072h-51.615V1169.063z"/>
            <path d="M2438.827,1377.015c21.275,0,35.617-12.715,35.617-56.443c0-21.92-4.21-52.262-36.234-52.262
              c-35.253,0-35.562,40.811-35.562,55.854C2402.647,1361.044,2414.997,1377.015,2438.827,1377.015 M2438.21,1235.948
              c59.783,0,85.577,40.5,85.577,86.588c0,46.311-26.776,88.158-86.505,88.158c-47.096,0-84.285-29.105-84.285-86.896
              C2352.997,1283.972,2373.206,1235.948,2438.21,1235.948"/>
            <path d="M2567.797,1269.265c0-0.646,0-18.609-0.982-30.033h46.423l1.262,24.812c4.576-7.523,17.628-28.77,53.554-28.77
              c32.306,0,46.031,19.646,50.269,31.07c3.592,10.104,4.574,18.58,4.574,49.287v89.113h-49.257v-102.502
              c0-6.848,0-12.715-2.64-17.963c-3.621-7.213-11.113-14.033-23.52-14.033c-10.469,0-19.928,4.883-25.12,12.713
              c-2.947,4.238-5.866,12.436-5.866,25.148v96.637h-48.696V1269.265"/>
            <path d="M2807.491,1357.087c0.646,10.469,7.156,22.537,27.394,22.537c17.29,0,25.485-9.795,25.485-19.59
              c0-7.494-3.929-13.361-22.875-18.637l-30.004-8.141c-13.416-3.9-41.82-12.068-41.82-45.693
              c0-32.025,29.359-51.615,72.16-51.615c33.992,0,61.383,15.689,62.676,48.641h-44.065
              c-1.264-18.244-15.971-19.535-23.493-19.535c-13.079,0-22.902,6.146-22.902,16.279c0,11.115,8.224,13.389,22.537,17.318
              l29.724,8.166c30.06,8.141,44.093,23.492,44.093,46.059c0,28.377-24.502,56.809-75.753,56.809
              c-21.22,0-41.482-4.604-56.527-20.236c-10.722-11.451-11.704-24.531-12.042-32.361H2807.491"/>
          </g>
        </g>
      </g>
      <path fill="#00AEEF" d="M1531.635,640.64V529.059c74.379,16.308,148.758,17.864,169.359,20.882
        c45.188,6.582,142.581-1.487,141.038,65.341C1840.797,672.104,1669.643,694.699,1531.635,640.64z M1531.635,45.936v175.688
        c38.479-9.487,83.36-15.535,134.724-17.317c217.072-7.508,360.722,105,360.722,105l-145.726,73.845
        c-99.977-89.366-320.025-90.91-323.027-16.503c-2.414,59.25,108.031,57.734,242.642,68.26
        c211.993,16.629,233.633,113.546,235.121,151.731c1.487,38.186-6.007,177.357-313.962,190.886
        c-75.838,3.368-138.736-1.768-190.493-11.34v198.8c437.149-14.453,783.584-214.63,783.584-459.503
        S1968.784,60.363,1531.635,45.936z"/>
      <path fill="#ABE1FA" d="M1319.236,665.55l107.974-45.736V491.646c-42.324-24.35-71.739-59.672-70.336-111.484
        c1.235-44.234,24.728-84.062,70.336-114.725V46.09C991.55,61.387,646.799,261.199,646.799,505.482
        c0,244.271,344.751,444.095,780.411,459.419V736.308C1348.538,704.212,1319.236,665.55,1319.236,665.55z M1297.54,767.028
        h-168.264v-550.12h168.264V767.028z"/>
      <path d="M2508.996,467.634h-67.446c-19.703-45.554-73.873-78.309-137.756-78.309c-0.195,0-0.392,0.057-0.588,0.057
        c-88.496-195.995-395.524-344.779-771.122-357.185l-14.201-0.463V186.82h-76.919V31.804l-14.258,0.505
        c-373.941,13.135-679.734,161.977-767.922,357.311c-1.628-0.07-3.228-0.295-4.856-0.295c-63.909,0-118.051,32.755-137.782,78.309
        H448.7c-25.346,0-45.918,17.514-45.918,39.168c0,21.598,20.572,39.168,45.918,39.168h68.709
        c20.657,44.148,73.9,75.613,136.519,75.613c1.629,0,3.2-0.225,4.828-0.268c88.216,195.32,393.98,344.203,767.95,357.367
        l14.286,0.477V824.116h76.891v155.1l14.201-0.504c375.598-12.35,682.626-161.191,771.122-357.171
        c0.196,0,0.393,0.043,0.588,0.043c62.619,0,115.863-31.465,136.493-75.613h68.709c25.372,0,45.917-17.57,45.917-39.168
        C2554.913,485.148,2534.368,467.634,2508.996,467.634z M2300.763,489.779h-183.11c-3.816-82.883-37.891-160.91-94.587-227.977
        c36.292-10.371,69.607-21.781,99.78-34.088C2229.08,300.394,2294.448,391.249,2300.763,489.779z M1721.651,766.832
        c-15.634,0.688-30.678,1.01-45.217,1.01c0,0,0,0-0.057,0c-213.241,0-309.765-71.347-338.73-98.475l124.058-52.541
        c62.352,40.992,150.315,65.383,236.763,65.383h0.056c76.035-0.028,153.19-20.658,154.259-66.717
        c1.487-64.75-72.75-70.069-121.897-73.535c-10.524-0.758-20.264-1.432-28.375-2.611c-5.67-0.842-15.382-1.571-28.04-2.525
        c-84.932-6.23-310.579-22.959-306.875-156.391c2.64-95.711,117.267-159.086,299.129-165.416
        c172.39-5.894,298.58,65.958,339.53,92.888l-123.328,62.451c-60.064-49.933-150.244-67.797-210.617-67.797
        c-75.332,0-123.104,24.361-124.675,63.614c-2.526,61.847,87.233,67.993,200.877,75.726c16.673,1.15,33.962,2.301,51.645,3.677
        c191.727,15.072,223.416,95.12,225.24,141.487C2027.389,637.02,2001.65,754.538,1721.651,766.832z M1308.262,321.333
        c16.812,1.095,33.793,2.021,50.97,2.793c-8,17.177-12.518,35.772-13.051,55.728c-1.375,49.217,22.369,84.469,58.184,109.926
        h-96.103V321.333z M1825.584,593.01c3.817,6.007,5.979,13.178,5.727,22.032c-0.141,6.766-4.856,13.586-13.473,19.858
        C1820.869,621.175,1823.479,607.199,1825.584,593.01z M1792.773,647.306c-22.679,8.07-54.646,13.459-94.25,13.459
        c-0.056,0-0.056,0-0.056,0c-52.795,0-106.095-9.459-153.052-26.468v-91.429c49.455,9.557,96.973,13.093,127.481,15.366
        c11.957,0.856,21.191,1.516,26.553,2.315c8.645,1.249,19.029,2.007,29.919,2.793c30.397,2.133,57.875,5.137,76.681,13.823
        C1803.046,601.22,1798.584,624.615,1792.773,647.306z M1308.262,511.208h105.168v102.811l-105.168,44.5V511.208z
         M1308.262,668.806l2.414,3.158c0.729,0.982,4.996,6.427,13.5,14.369c-5.333,0.31-10.609,0.633-15.914,0.982V668.806z
         M1999.771,489.779c-32.193-28.461-85.718-52.795-172.867-62.913c-3.396-25.372-8.393-50.058-14.819-73.999
        c22.707,9.852,44.178,22.243,62.141,38.283l5.445,4.898l157.57-79.824c35.056,53.202,55.966,111.961,58.997,173.555H1999.771z
         M1672.309,323.985c32.67,0,74.463,5.796,114.739,19.282c7.803,26.074,13.81,53.216,17.795,81.256
        c-1.038-0.085-1.937-0.211-3.003-0.31c-17.767-1.39-35.142-2.54-51.869-3.704c-102.024-6.961-182.606-12.42-180.923-53.497
        C1570.06,341.275,1611.571,323.985,1672.309,323.985z M1987.421,271.162c4.351-1.066,8.757-2.104,12.967-3.199
        c6.399,7.283,12.434,14.722,18.242,22.244C2010.969,285.083,2000.557,278.572,1987.421,271.162z M2046.811,586.246
        c-0.842-21.303-7.071-48.696-27.084-75.037h76.819c-1.487,83.809-35.842,162.748-94.531,229.928
        c-13.247-3.51-27.028-6.835-41.033-10.062C2038.278,684.285,2048.187,620.867,2046.811,586.246z M2099.971,212.726
        c-28.573,10.862-59.841,20.995-93.661,30.285c-63.769-68.007-151.507-123.3-254.374-159.029
        C1888.062,109.944,2007.517,154.852,2099.971,212.726z M1982.789,249.158c-8.336,2.133-17.121,4.098-25.737,6.133
        c-50.718-24.671-124.507-51.588-215.67-59.629c-37.778-55.601-85.324-99.737-139.551-126.19
        C1758.532,92.177,1893.535,158.444,1982.789,249.158z M1714.354,194.005c-15.718-0.674-31.772-0.982-48.388-0.407
        c-44.318,1.53-84.511,6.414-120.55,14.062V71C1611.066,88.557,1669.222,132.818,1714.354,194.005z M1413.43,261.044
        c-17.205,12.42-31.154,26.51-41.876,41.975c-21.359-0.94-42.466-2.105-63.292-3.578v-93.226h-69.018
        c45.525-66.52,105.674-115.034,174.186-134.302V261.044z M1139.997,756.278V227.63h146.849v528.648H1139.997z M1211.935,206.215
        h-93.352v71.431c-49.371-7.985-96.131-17.514-139.13-28.432c89.086-90.517,223.612-156.784,379.694-179.603
        C1300.852,97.776,1250.527,145.477,1211.935,206.215z M1118.583,708.38c-56.809,8.996-110.08,19.873-158.384,32.713
        c-58.745-67.234-93.184-146.16-94.699-229.885h253.083V708.38z M1118.583,489.779H865.836
        c3.986-80.777,38.649-156.784,96.047-221.746c47.826,12.645,100.537,23.366,156.7,32.264V489.779z M1210.587,83.897
        c-102.923,35.771-190.802,91.106-254.654,159.142c-33.821-9.234-65.088-19.395-93.661-30.257
        C954.838,154.852,1074.349,109.888,1210.587,83.897z M839.369,227.798c30.2,12.322,63.488,23.745,99.808,34.088
        c-56.78,67.095-90.883,145.122-94.756,227.893H661.282C667.597,391.333,733.078,300.464,839.369,227.798z M660.833,511.208
        h183.279c1.403,85.703,35.421,166.607,93.549,236.004c-36.601,10.469-70.085,22.033-100.397,34.522
        C728.615,706.837,663.219,612.826,660.833,511.208z M859.998,796.722c28.713-11.001,60.205-21.274,94.25-30.676
        c63.994,68.848,152.378,124.842,256.143,160.965C1073.142,900.796,952.817,855.327,859.998,796.722z M977.629,759.913
        c43.476-11.128,90.854-20.756,140.954-28.896v46.705h77.662c40.192,73.605,96.186,131.41,162.874,163.603
        C1201.999,918.282,1066.687,851.341,977.629,759.913z M1222.235,777.722h86.026v-68.555c13.557-0.941,27.253-1.727,41.034-2.484
        c15.718,11.227,36.796,23.801,64.134,35.688v196.681C1335.992,917.243,1269.191,858.106,1222.235,777.722z M1545.416,779.49
        c37.976,6.062,81.396,9.795,130.962,9.795c0.057,0,0.057,0,0.057,0c14.848,0,30.2-0.336,46.171-1.066
        c3.957-0.168,7.69-0.463,11.563-0.674c-47.265,76.484-112.971,132.197-188.753,152.378V779.49z M1759.683,785.804
        c73.816-6.188,129.054-20.208,170.144-38.48c18.749,4.014,37.247,8.141,54.788,12.659
        c-89.227,91.667-225.017,158.665-382.783,181.483C1665.292,910.536,1719.574,855.438,1759.683,785.804z M1752.217,926.899
        c103.679-36.096,191.924-91.977,255.749-160.784c34.073,9.417,65.566,19.688,94.278,30.663
        C2009.537,855.327,1889.354,900.712,1752.217,926.899z M2124.95,781.805c-30.312-12.476-63.797-24.04-100.369-34.509
        c58.016-69.354,91.978-150.272,93.437-236.088h183.224C2298.827,612.966,2233.515,706.935,2124.95,781.805z"/>
    </g>
    <g>
      <rect x="1192.175" y="979.272" fill="none" width="571.409" height="189.65"/>
    </g>
    <g>
      <rect x="2906.625" y="1235.247" fill="none" width="571.423" height="189.65"/>
    </g>
    <g>
      <rect x="-521.84" y="1235.247" fill="none" width="571.395" height="189.65"/>
    </g>
    <g>
      <rect x="1383.033" y="1686.345" fill="none" width="189.692" height="571.422"/>
    </g>
    <g>
      <rect x="1383.033" y="-539.892" fill="none" width="189.692" height="571.416"/>
    </g>
    <g>
      <rect x="-521.896" y="-539.892" fill="none" width="3999.999" height="2797.743"/>
    </g>
    <g>
      <rect x="49.358" y="30.808" fill="none" width="2857.211" height="1655.453"/>
    </g>
  </g>
  <path fill="#FFFFFF" d="M1721.651,766.832c-15.634,0.688-30.678,1.01-45.217,1.01c0,0,0,0-0.057,0
    c-213.241,0-309.765-71.347-338.73-98.475l124.058-52.541c62.352,40.992,150.315,65.383,236.763,65.383h0.056
    c76.035-0.028,153.19-20.658,154.259-66.717c1.487-64.75-72.75-70.069-121.897-73.535c-10.524-0.758-20.264-1.432-28.375-2.611
    c-5.67-0.842-15.382-1.571-28.04-2.525c-84.932-6.23-310.579-22.959-306.875-156.391c2.64-95.711,117.267-159.086,299.129-165.416
    c172.39-5.894,298.58,65.958,339.53,92.888l-123.328,62.451c-60.064-49.933-150.244-67.797-210.617-67.797
    c-75.332,0-123.104,24.361-124.675,63.614c-2.526,61.847,87.233,67.993,200.877,75.726c16.673,1.15,33.962,2.301,51.645,3.677
    c191.727,15.072,223.416,95.12,225.24,141.487C2027.389,637.02,2001.65,754.538,1721.651,766.832z"/>
  <rect x="1139.997" y="227.63" fill="#FFFFFF" width="146.849" height="528.648"/>
</g>
</svg>
